<mxfile host="app.diagrams.net" agent="Mozilla/5.0 (Windows NT 10.0; Win64; x64) AppleWebKit/537.36 (KHTML, like Gecko) Chrome/139.0.0.0 Safari/537.36" version="28.1.1">
  <diagram name="Page-1" id="2OgFU_NfAqAKcKFk_eMg">
    <mxGraphModel dx="983" dy="512" grid="0" gridSize="10" guides="1" tooltips="1" connect="1" arrows="1" fold="1" page="0" pageScale="1" pageWidth="850" pageHeight="1100" math="0" shadow="0">
      <root>
        <mxCell id="0" />
        <mxCell id="1" parent="0" />
        <mxCell id="pwvyJWc3YuwxzMDOtPv8-33" value="&lt;font style=&quot;font-size: 10px;&quot;&gt;Space Heating&lt;/font&gt;" style="whiteSpace=wrap;html=1;fillColor=#fff2cc;strokeColor=light-dark(#4d5356, #6d5100);strokeWidth=2;" vertex="1" parent="1">
          <mxGeometry x="210" y="152" width="100" height="60" as="geometry" />
        </mxCell>
        <mxCell id="pwvyJWc3YuwxzMDOtPv8-38" value="" style="edgeStyle=orthogonalEdgeStyle;rounded=0;orthogonalLoop=1;jettySize=auto;html=1;" edge="1" parent="1" source="pwvyJWc3YuwxzMDOtPv8-35" target="pwvyJWc3YuwxzMDOtPv8-33">
          <mxGeometry relative="1" as="geometry" />
        </mxCell>
        <mxCell id="pwvyJWc3YuwxzMDOtPv8-35" value="&lt;font style=&quot;font-size: 10px;&quot;&gt;Cooking&lt;/font&gt;&lt;div&gt;&lt;font style=&quot;font-size: 10px;&quot;&gt;Space Heating&lt;br&gt;Safety&lt;/font&gt;&lt;/div&gt;" style="whiteSpace=wrap;html=1;fillColor=#fff2cc;strokeColor=light-dark(#4d5356, #6d5100);strokeWidth=2;" vertex="1" parent="1">
          <mxGeometry x="70" y="152" width="100" height="60" as="geometry" />
        </mxCell>
        <mxCell id="pwvyJWc3YuwxzMDOtPv8-41" value="" style="edgeStyle=orthogonalEdgeStyle;rounded=0;orthogonalLoop=1;jettySize=auto;html=1;exitX=1;exitY=0.5;exitDx=0;exitDy=0;" edge="1" parent="1" source="pwvyJWc3YuwxzMDOtPv8-33">
          <mxGeometry relative="1" as="geometry">
            <mxPoint x="300" y="330" as="sourcePoint" />
            <mxPoint x="380" y="220" as="targetPoint" />
          </mxGeometry>
        </mxCell>
        <mxCell id="pwvyJWc3YuwxzMDOtPv8-46" value="" style="edgeStyle=orthogonalEdgeStyle;rounded=0;orthogonalLoop=1;jettySize=auto;html=1;" edge="1" parent="1" source="pwvyJWc3YuwxzMDOtPv8-43" target="pwvyJWc3YuwxzMDOtPv8-45">
          <mxGeometry relative="1" as="geometry" />
        </mxCell>
        <mxCell id="pwvyJWc3YuwxzMDOtPv8-43" value="&lt;font style=&quot;font-size: 10px;&quot;&gt;Draw&amp;nbsp;&lt;/font&gt;&lt;div&gt;&lt;font style=&quot;font-size: 10px;&quot;&gt;Conclusions&lt;/font&gt;&lt;/div&gt;" style="whiteSpace=wrap;html=1;fillColor=#fff2cc;strokeColor=light-dark(#4d5356, #6d5100);strokeWidth=2;" vertex="1" parent="1">
          <mxGeometry x="750" y="152" width="100" height="60" as="geometry" />
        </mxCell>
        <mxCell id="pwvyJWc3YuwxzMDOtPv8-45" value="&lt;font style=&quot;font-size: 10px;&quot;&gt;What can we improve on more?&lt;/font&gt;" style="whiteSpace=wrap;html=1;fillColor=#fff2cc;strokeColor=light-dark(#4d5356, #6d5100);strokeWidth=2;" vertex="1" parent="1">
          <mxGeometry x="890" y="152" width="90" height="60" as="geometry" />
        </mxCell>
        <mxCell id="pwvyJWc3YuwxzMDOtPv8-64" style="edgeStyle=orthogonalEdgeStyle;rounded=0;orthogonalLoop=1;jettySize=auto;html=1;" edge="1" parent="1" source="pwvyJWc3YuwxzMDOtPv8-66" target="pwvyJWc3YuwxzMDOtPv8-74">
          <mxGeometry relative="1" as="geometry" />
        </mxCell>
        <mxCell id="pwvyJWc3YuwxzMDOtPv8-65" value="User Validation" style="edgeLabel;html=1;align=center;verticalAlign=middle;resizable=0;points=[];" vertex="1" connectable="0" parent="pwvyJWc3YuwxzMDOtPv8-64">
          <mxGeometry x="0.0218" relative="1" as="geometry">
            <mxPoint x="2" y="-10" as="offset" />
          </mxGeometry>
        </mxCell>
        <mxCell id="pwvyJWc3YuwxzMDOtPv8-79" style="edgeStyle=orthogonalEdgeStyle;rounded=0;orthogonalLoop=1;jettySize=auto;html=1;entryX=0;entryY=0.5;entryDx=0;entryDy=0;exitX=0.43;exitY=1.003;exitDx=0;exitDy=0;exitPerimeter=0;" edge="1" parent="1" source="pwvyJWc3YuwxzMDOtPv8-66" target="pwvyJWc3YuwxzMDOtPv8-43">
          <mxGeometry relative="1" as="geometry" />
        </mxCell>
        <mxCell id="pwvyJWc3YuwxzMDOtPv8-66" value="&lt;span style=&quot;font-size: 10px; background-color: transparent; color: light-dark(rgb(0, 0, 0), rgb(255, 255, 255));&quot;&gt;&amp;nbsp;Post Field Test&amp;nbsp;&lt;/span&gt;&lt;div&gt;&lt;span style=&quot;font-size: 10px; background-color: transparent; color: light-dark(rgb(0, 0, 0), rgb(255, 255, 255));&quot;&gt;Survey&lt;/span&gt;&lt;/div&gt;" style="shape=parallelogram;perimeter=parallelogramPerimeter;whiteSpace=wrap;html=1;fixedSize=1;direction=west;fillColor=#fff2cc;strokeColor=light-dark(#4d5356, #6d5100);perimeterSpacing=0;strokeWidth=2;" vertex="1" parent="1">
          <mxGeometry x="610" y="222" width="120" height="60" as="geometry" />
        </mxCell>
        <mxCell id="pwvyJWc3YuwxzMDOtPv8-67" style="edgeStyle=orthogonalEdgeStyle;rounded=0;orthogonalLoop=1;jettySize=auto;html=1;" edge="1" parent="1" source="pwvyJWc3YuwxzMDOtPv8-69" target="pwvyJWc3YuwxzMDOtPv8-72">
          <mxGeometry relative="1" as="geometry" />
        </mxCell>
        <mxCell id="pwvyJWc3YuwxzMDOtPv8-68" value="Verification" style="edgeLabel;html=1;align=center;verticalAlign=middle;resizable=0;points=[];" vertex="1" connectable="0" parent="pwvyJWc3YuwxzMDOtPv8-67">
          <mxGeometry x="-0.4572" y="1" relative="1" as="geometry">
            <mxPoint x="-13" y="-11" as="offset" />
          </mxGeometry>
        </mxCell>
        <mxCell id="pwvyJWc3YuwxzMDOtPv8-69" value="&lt;font style=&quot;font-size: 10px;&quot;&gt;Lab Test to Validate Safety Constraints&lt;/font&gt;" style="shape=parallelogram;perimeter=parallelogramPerimeter;whiteSpace=wrap;html=1;fixedSize=1;fillColor=#fff2cc;strokeColor=light-dark(#4d5356, #6d5100);perimeterSpacing=0;strokeWidth=2;" vertex="1" parent="1">
          <mxGeometry x="570" y="342" width="120" height="60" as="geometry" />
        </mxCell>
        <mxCell id="pwvyJWc3YuwxzMDOtPv8-70" value="Integration Testing" style="edgeStyle=orthogonalEdgeStyle;rounded=0;orthogonalLoop=1;jettySize=auto;html=1;" edge="1" parent="1" source="pwvyJWc3YuwxzMDOtPv8-71" target="pwvyJWc3YuwxzMDOtPv8-75">
          <mxGeometry y="-10" relative="1" as="geometry">
            <mxPoint as="offset" />
          </mxGeometry>
        </mxCell>
        <mxCell id="pwvyJWc3YuwxzMDOtPv8-71" value="&lt;font style=&quot;font-size: 10px;&quot;&gt;Field Test to&amp;nbsp;&lt;/font&gt;&lt;div&gt;&lt;font style=&quot;font-size: 10px;&quot;&gt;Ensure Customer Satisfaction&lt;/font&gt;&lt;/div&gt;" style="shape=parallelogram;perimeter=parallelogramPerimeter;whiteSpace=wrap;html=1;fixedSize=1;fillColor=#fff2cc;strokeColor=light-dark(#4d5356, #6d5100);perimeterSpacing=0;strokeWidth=2;" vertex="1" parent="1">
          <mxGeometry x="590" y="282" width="120" height="60" as="geometry" />
        </mxCell>
        <mxCell id="pwvyJWc3YuwxzMDOtPv8-72" value="&lt;font style=&quot;font-size: 10px;&quot;&gt;Redesign with&amp;nbsp;&lt;/font&gt;&lt;div&gt;&lt;font style=&quot;font-size: 10px;&quot;&gt;Defined Safety Constraints&lt;br&gt;&lt;/font&gt;&lt;/div&gt;" style="shape=parallelogram;perimeter=parallelogramPerimeter;whiteSpace=wrap;html=1;fixedSize=1;direction=west;flipH=1;fillColor=#fff2cc;strokeColor=light-dark(#4d5356, #6d5100);perimeterSpacing=0;strokeWidth=2;" vertex="1" parent="1">
          <mxGeometry x="370" y="342" width="120" height="60" as="geometry" />
        </mxCell>
        <mxCell id="pwvyJWc3YuwxzMDOtPv8-73" value="" style="shape=trapezoid;perimeter=trapezoidPerimeter;whiteSpace=wrap;html=1;fixedSize=1;rotation=-180;fillColor=light-dark(#b79961, #3e2800);strokeColor=#36393d;" vertex="1" parent="1">
          <mxGeometry x="390" y="402" width="280" height="66" as="geometry" />
        </mxCell>
        <mxCell id="pwvyJWc3YuwxzMDOtPv8-74" value="&lt;font style=&quot;font-size: 10px;&quot;&gt;User&amp;nbsp;&lt;/font&gt;&lt;span style=&quot;font-size: 10px; background-color: transparent; color: light-dark(rgb(0, 0, 0), rgb(255, 255, 255));&quot;&gt;Requirements&lt;/span&gt;" style="shape=parallelogram;perimeter=parallelogramPerimeter;whiteSpace=wrap;html=1;fixedSize=1;direction=west;flipH=1;fillColor=#fff2cc;strokeColor=light-dark(#4d5356, #6d5100);perimeterSpacing=0;strokeWidth=2;" vertex="1" parent="1">
          <mxGeometry x="330" y="222" width="120" height="60" as="geometry" />
        </mxCell>
        <mxCell id="pwvyJWc3YuwxzMDOtPv8-75" value="&lt;font style=&quot;font-size: 10px;&quot;&gt;Prototype Design&amp;nbsp;&lt;/font&gt;&lt;div&gt;&lt;font style=&quot;font-size: 10px;&quot;&gt;and Testing&lt;/font&gt;&lt;/div&gt;" style="shape=parallelogram;perimeter=parallelogramPerimeter;whiteSpace=wrap;html=1;fixedSize=1;direction=west;flipH=1;fillColor=#fff2cc;strokeColor=light-dark(#4d5356, #6d5100);perimeterSpacing=0;strokeWidth=2;" vertex="1" parent="1">
          <mxGeometry x="350" y="282" width="120" height="60" as="geometry" />
        </mxCell>
        <mxCell id="pwvyJWc3YuwxzMDOtPv8-76" value="&lt;font style=&quot;font-size: 13px;&quot;&gt;&lt;b&gt;Develop and Manufacture&amp;nbsp;&lt;/b&gt;&lt;/font&gt;" style="text;html=1;align=center;verticalAlign=middle;whiteSpace=wrap;rounded=0;" vertex="1" parent="1">
          <mxGeometry x="450" y="420" width="170" height="30" as="geometry" />
        </mxCell>
        <mxCell id="pwvyJWc3YuwxzMDOtPv8-77" value="&lt;font style=&quot;font-size: 8px;&quot;&gt;Conceptual Design&lt;/font&gt;" style="text;html=1;align=center;verticalAlign=middle;whiteSpace=wrap;rounded=0;" vertex="1" parent="1">
          <mxGeometry x="450" y="262" width="70" height="30" as="geometry" />
        </mxCell>
        <mxCell id="pwvyJWc3YuwxzMDOtPv8-78" value="&lt;span style=&quot;color: rgb(0, 0, 0); font-family: Helvetica; font-size: 8px; font-style: normal; font-variant-ligatures: normal; font-variant-caps: normal; font-weight: 400; letter-spacing: normal; orphans: 2; text-align: center; text-indent: 0px; text-transform: none; widows: 2; word-spacing: 0px; -webkit-text-stroke-width: 0px; white-space: normal; text-decoration-thickness: initial; text-decoration-style: initial; text-decoration-color: initial; float: none; display: inline !important;&quot;&gt;System Design&lt;/span&gt;" style="text;whiteSpace=wrap;html=1;" vertex="1" parent="1">
          <mxGeometry x="470" y="322" width="100" height="40" as="geometry" />
        </mxCell>
        <mxCell id="pwvyJWc3YuwxzMDOtPv8-83" style="edgeStyle=orthogonalEdgeStyle;rounded=0;orthogonalLoop=1;jettySize=auto;html=1;entryX=0.5;entryY=1;entryDx=0;entryDy=0;" edge="1" parent="1" source="pwvyJWc3YuwxzMDOtPv8-80" target="pwvyJWc3YuwxzMDOtPv8-33">
          <mxGeometry relative="1" as="geometry" />
        </mxCell>
        <mxCell id="pwvyJWc3YuwxzMDOtPv8-80" value="Surveys" style="rounded=1;whiteSpace=wrap;html=1;fillColor=light-dark(#61223b, #ffadcd);strokeColor=#6F0000;fontColor=#ffffff;" vertex="1" parent="1">
          <mxGeometry x="215" y="250" width="90" height="22" as="geometry" />
        </mxCell>
        <mxCell id="pwvyJWc3YuwxzMDOtPv8-84" style="edgeStyle=orthogonalEdgeStyle;rounded=0;orthogonalLoop=1;jettySize=auto;html=1;entryX=0.5;entryY=1;entryDx=0;entryDy=0;" edge="1" parent="1" source="pwvyJWc3YuwxzMDOtPv8-82" target="pwvyJWc3YuwxzMDOtPv8-43">
          <mxGeometry relative="1" as="geometry" />
        </mxCell>
        <mxCell id="pwvyJWc3YuwxzMDOtPv8-82" value="Surveys" style="rounded=1;whiteSpace=wrap;html=1;fillColor=light-dark(#61223b, #ffadcd);strokeColor=#6F0000;fontColor=#ffffff;" vertex="1" parent="1">
          <mxGeometry x="755" y="250" width="90" height="22" as="geometry" />
        </mxCell>
        <mxCell id="pwvyJWc3YuwxzMDOtPv8-85" style="edgeStyle=orthogonalEdgeStyle;rounded=0;orthogonalLoop=1;jettySize=auto;html=1;entryX=0.5;entryY=1;entryDx=0;entryDy=0;" edge="1" parent="1" source="pwvyJWc3YuwxzMDOtPv8-86">
          <mxGeometry relative="1" as="geometry">
            <mxPoint x="120" y="212" as="targetPoint" />
          </mxGeometry>
        </mxCell>
        <mxCell id="pwvyJWc3YuwxzMDOtPv8-86" value="Interviews" style="rounded=1;whiteSpace=wrap;html=1;fillColor=light-dark(#61223b, #ffadcd);strokeColor=#6F0000;fontColor=#ffffff;" vertex="1" parent="1">
          <mxGeometry x="75" y="250" width="90" height="22" as="geometry" />
        </mxCell>
        <mxCell id="pwvyJWc3YuwxzMDOtPv8-87" value="&lt;font style=&quot;font-size: 8px;&quot;&gt;User Requirements&lt;/font&gt;" style="text;html=1;align=center;verticalAlign=middle;whiteSpace=wrap;rounded=0;" vertex="1" parent="1">
          <mxGeometry x="60" y="130" width="90" height="30" as="geometry" />
        </mxCell>
        <mxCell id="pwvyJWc3YuwxzMDOtPv8-88" value="&lt;span style=&quot;color: rgb(0, 0, 0); font-family: Helvetica; font-size: 8px; font-style: normal; font-variant-ligatures: normal; font-variant-caps: normal; font-weight: 400; letter-spacing: normal; orphans: 2; text-align: center; text-indent: 0px; text-transform: none; widows: 2; word-spacing: 0px; -webkit-text-stroke-width: 0px; white-space: normal; text-decoration-thickness: initial; text-decoration-style: initial; text-decoration-color: initial; float: none; display: inline !important;&quot;&gt;Rank Requirements&lt;/span&gt;" style="text;whiteSpace=wrap;html=1;" vertex="1" parent="1">
          <mxGeometry x="210" y="130" width="100" height="40" as="geometry" />
        </mxCell>
        <mxCell id="pwvyJWc3YuwxzMDOtPv8-89" value="&lt;div style=&quot;text-align: center;&quot;&gt;&lt;span style=&quot;background-color: transparent; color: light-dark(rgb(0, 0, 0), rgb(255, 255, 255)); font-size: 8px;&quot;&gt;Design Evaluation&lt;/span&gt;&lt;/div&gt;" style="text;whiteSpace=wrap;html=1;" vertex="1" parent="1">
          <mxGeometry x="750" y="130" width="100" height="40" as="geometry" />
        </mxCell>
        <mxCell id="pwvyJWc3YuwxzMDOtPv8-90" value="&lt;div style=&quot;text-align: center;&quot;&gt;&lt;span style=&quot;font-size: 8px;&quot;&gt;Long Term&lt;/span&gt;&lt;/div&gt;" style="text;whiteSpace=wrap;html=1;" vertex="1" parent="1">
          <mxGeometry x="890" y="130" width="100" height="40" as="geometry" />
        </mxCell>
        <mxCell id="pwvyJWc3YuwxzMDOtPv8-91" style="edgeStyle=orthogonalEdgeStyle;rounded=0;orthogonalLoop=1;jettySize=auto;html=1;entryX=0.5;entryY=1;entryDx=0;entryDy=0;" edge="1" parent="1" source="pwvyJWc3YuwxzMDOtPv8-92">
          <mxGeometry relative="1" as="geometry">
            <mxPoint x="940" y="212" as="targetPoint" />
          </mxGeometry>
        </mxCell>
        <mxCell id="pwvyJWc3YuwxzMDOtPv8-92" value="Interview" style="rounded=1;whiteSpace=wrap;html=1;fillColor=light-dark(#61223b, #ffadcd);strokeColor=#6F0000;fontColor=#ffffff;" vertex="1" parent="1">
          <mxGeometry x="895" y="250" width="90" height="22" as="geometry" />
        </mxCell>
        <mxCell id="pwvyJWc3YuwxzMDOtPv8-123" style="edgeStyle=orthogonalEdgeStyle;rounded=0;orthogonalLoop=1;jettySize=auto;html=1;" edge="1" parent="1" source="pwvyJWc3YuwxzMDOtPv8-125" target="pwvyJWc3YuwxzMDOtPv8-133">
          <mxGeometry relative="1" as="geometry" />
        </mxCell>
        <mxCell id="pwvyJWc3YuwxzMDOtPv8-124" value="User Validation" style="edgeLabel;html=1;align=center;verticalAlign=middle;resizable=0;points=[];" vertex="1" connectable="0" parent="pwvyJWc3YuwxzMDOtPv8-123">
          <mxGeometry x="0.0218" relative="1" as="geometry">
            <mxPoint x="2" y="-10" as="offset" />
          </mxGeometry>
        </mxCell>
        <mxCell id="pwvyJWc3YuwxzMDOtPv8-125" value="&lt;span style=&quot;font-size: 10px; background-color: transparent; color: light-dark(rgb(0, 0, 0), rgb(255, 255, 255));&quot;&gt;&amp;nbsp;Post Field Test&amp;nbsp;&lt;/span&gt;&lt;div&gt;&lt;span style=&quot;font-size: 10px; background-color: transparent; color: light-dark(rgb(0, 0, 0), rgb(255, 255, 255));&quot;&gt;Survey&lt;/span&gt;&lt;/div&gt;" style="shape=parallelogram;perimeter=parallelogramPerimeter;whiteSpace=wrap;html=1;fixedSize=1;direction=west;fillColor=#fff2cc;strokeColor=light-dark(#4d5356, #6d5100);perimeterSpacing=0;strokeWidth=2;" vertex="1" parent="1">
          <mxGeometry x="600" y="588" width="120" height="60" as="geometry" />
        </mxCell>
        <mxCell id="pwvyJWc3YuwxzMDOtPv8-126" style="edgeStyle=orthogonalEdgeStyle;rounded=0;orthogonalLoop=1;jettySize=auto;html=1;" edge="1" parent="1" source="pwvyJWc3YuwxzMDOtPv8-128" target="pwvyJWc3YuwxzMDOtPv8-131">
          <mxGeometry relative="1" as="geometry" />
        </mxCell>
        <mxCell id="pwvyJWc3YuwxzMDOtPv8-127" value="Verification" style="edgeLabel;html=1;align=center;verticalAlign=middle;resizable=0;points=[];" vertex="1" connectable="0" parent="pwvyJWc3YuwxzMDOtPv8-126">
          <mxGeometry x="-0.4572" y="1" relative="1" as="geometry">
            <mxPoint x="-13" y="-11" as="offset" />
          </mxGeometry>
        </mxCell>
        <mxCell id="pwvyJWc3YuwxzMDOtPv8-128" value="&lt;font style=&quot;font-size: 10px;&quot;&gt;Lab Test to Validate Safety Constraints&lt;/font&gt;" style="shape=parallelogram;perimeter=parallelogramPerimeter;whiteSpace=wrap;html=1;fixedSize=1;fillColor=#fff2cc;strokeColor=light-dark(#4d5356, #6d5100);perimeterSpacing=0;strokeWidth=2;" vertex="1" parent="1">
          <mxGeometry x="560" y="708" width="120" height="60" as="geometry" />
        </mxCell>
        <mxCell id="pwvyJWc3YuwxzMDOtPv8-129" value="Integration Testing" style="edgeStyle=orthogonalEdgeStyle;rounded=0;orthogonalLoop=1;jettySize=auto;html=1;" edge="1" parent="1" source="pwvyJWc3YuwxzMDOtPv8-130" target="pwvyJWc3YuwxzMDOtPv8-134">
          <mxGeometry y="-10" relative="1" as="geometry">
            <mxPoint as="offset" />
          </mxGeometry>
        </mxCell>
        <mxCell id="pwvyJWc3YuwxzMDOtPv8-130" value="&lt;font style=&quot;font-size: 10px;&quot;&gt;Field Test to&amp;nbsp;&lt;/font&gt;&lt;div&gt;&lt;font style=&quot;font-size: 10px;&quot;&gt;Ensure Customer Satisfaction&lt;/font&gt;&lt;/div&gt;" style="shape=parallelogram;perimeter=parallelogramPerimeter;whiteSpace=wrap;html=1;fixedSize=1;fillColor=#fff2cc;strokeColor=light-dark(#4d5356, #6d5100);perimeterSpacing=0;strokeWidth=2;" vertex="1" parent="1">
          <mxGeometry x="580" y="648" width="120" height="60" as="geometry" />
        </mxCell>
        <mxCell id="pwvyJWc3YuwxzMDOtPv8-131" value="&lt;font style=&quot;font-size: 10px;&quot;&gt;Redesign with&amp;nbsp;&lt;/font&gt;&lt;div&gt;&lt;font style=&quot;font-size: 10px;&quot;&gt;Defined Safety Constraints&lt;br&gt;&lt;/font&gt;&lt;/div&gt;" style="shape=parallelogram;perimeter=parallelogramPerimeter;whiteSpace=wrap;html=1;fixedSize=1;direction=west;flipH=1;fillColor=#fff2cc;strokeColor=light-dark(#4d5356, #6d5100);perimeterSpacing=0;strokeWidth=2;" vertex="1" parent="1">
          <mxGeometry x="360" y="708" width="120" height="60" as="geometry" />
        </mxCell>
        <mxCell id="pwvyJWc3YuwxzMDOtPv8-132" value="" style="shape=trapezoid;perimeter=trapezoidPerimeter;whiteSpace=wrap;html=1;fixedSize=1;rotation=-180;fillColor=light-dark(#b79961, #3e2800);strokeColor=#36393d;" vertex="1" parent="1">
          <mxGeometry x="380" y="768" width="280" height="66" as="geometry" />
        </mxCell>
        <mxCell id="pwvyJWc3YuwxzMDOtPv8-133" value="&lt;font style=&quot;font-size: 10px;&quot;&gt;User&amp;nbsp;&lt;/font&gt;&lt;span style=&quot;font-size: 10px; background-color: transparent; color: light-dark(rgb(0, 0, 0), rgb(255, 255, 255));&quot;&gt;Requirements&lt;/span&gt;" style="shape=parallelogram;perimeter=parallelogramPerimeter;whiteSpace=wrap;html=1;fixedSize=1;direction=west;flipH=1;fillColor=#fff2cc;strokeColor=light-dark(#4d5356, #6d5100);perimeterSpacing=0;strokeWidth=2;" vertex="1" parent="1">
          <mxGeometry x="320" y="588" width="120" height="60" as="geometry" />
        </mxCell>
        <mxCell id="pwvyJWc3YuwxzMDOtPv8-134" value="&lt;font style=&quot;font-size: 10px;&quot;&gt;Prototype Design&amp;nbsp;&lt;/font&gt;&lt;div&gt;&lt;font style=&quot;font-size: 10px;&quot;&gt;and Testing&lt;/font&gt;&lt;/div&gt;" style="shape=parallelogram;perimeter=parallelogramPerimeter;whiteSpace=wrap;html=1;fixedSize=1;direction=west;flipH=1;fillColor=#fff2cc;strokeColor=light-dark(#4d5356, #6d5100);perimeterSpacing=0;strokeWidth=2;" vertex="1" parent="1">
          <mxGeometry x="340" y="648" width="120" height="60" as="geometry" />
        </mxCell>
        <mxCell id="pwvyJWc3YuwxzMDOtPv8-135" value="&lt;font style=&quot;font-size: 13px;&quot;&gt;&lt;b&gt;Develop and Manufacture&amp;nbsp;&lt;/b&gt;&lt;/font&gt;" style="text;html=1;align=center;verticalAlign=middle;whiteSpace=wrap;rounded=0;" vertex="1" parent="1">
          <mxGeometry x="440" y="786" width="170" height="30" as="geometry" />
        </mxCell>
        <mxCell id="pwvyJWc3YuwxzMDOtPv8-136" value="&lt;font style=&quot;font-size: 8px;&quot;&gt;Conceptual Design&lt;/font&gt;" style="text;html=1;align=center;verticalAlign=middle;whiteSpace=wrap;rounded=0;" vertex="1" parent="1">
          <mxGeometry x="440" y="628" width="70" height="30" as="geometry" />
        </mxCell>
        <mxCell id="pwvyJWc3YuwxzMDOtPv8-137" value="&lt;span style=&quot;color: rgb(0, 0, 0); font-family: Helvetica; font-size: 8px; font-style: normal; font-variant-ligatures: normal; font-variant-caps: normal; font-weight: 400; letter-spacing: normal; orphans: 2; text-align: center; text-indent: 0px; text-transform: none; widows: 2; word-spacing: 0px; -webkit-text-stroke-width: 0px; white-space: normal; text-decoration-thickness: initial; text-decoration-style: initial; text-decoration-color: initial; float: none; display: inline !important;&quot;&gt;System Design&lt;/span&gt;" style="text;whiteSpace=wrap;html=1;" vertex="1" parent="1">
          <mxGeometry x="460" y="688" width="100" height="40" as="geometry" />
        </mxCell>
      </root>
    </mxGraphModel>
  </diagram>
</mxfile>
